# xmcd CD database file
#
# Track frame offsets:
#	150
#	15293
#	37522
#	56597
#	70049
#	88025
#	107319
#	122335
#	147244
#	164599
#	184936
#	200990
#	223125
#	242870
#
# Disc length: 3536 seconds
#
# Revision: 0
# Processed by: cddbd v1.5.1PL0 Copyright (c) Steve Scherf et al.
# Submitted via: CDex 1.51
#
DISCID=bd0dce0e
DTITLE=Los Blues - San Antonio Bound
DYEAR=2004
DGENRE=Blues
TTITLE0=Just Your Fool
TTITLE1=Maria
TTITLE2=Love You So
TTITLE3=San Antonio Bound
TTITLE4=Wasted Days and Wasted Night
TTITLE5=See It In Your Eyes
TTITLE6=Willie's Boogie
TTITLE7=Baby Please
TTITLE8=Handsom Cat
TTITLE9=Further Up On The Road
TTITLE10=Walking Blues
TTITLE11=Nags Me All The Time
TTITLE12=Learning The Blues
TTITLE13=Blues Para Tio Chago
EXTD=YEAR: 2004
EXTT0=
EXTT1=
EXTT2=
EXTT3=
EXTT4=
EXTT5=
EXTT6=
EXTT7=
EXTT8=
EXTT9=
EXTT10=
EXTT11=
EXTT12=
EXTT13=
PLAYORDER=
